<?xml version="1.0" encoding="utf-8"?>
<!-- Generator: Adobe Illustrator 27.2.0, SVG Export Plug-In . SVG Version: 6.00 Build 0)  -->
<svg version="1.1" id="Calque_1" xmlns="http://www.w3.org/2000/svg" xmlns:xlink="http://www.w3.org/1999/xlink" x="0px" y="0px"
	 viewBox="0 0 1920 1080" style="enable-background:new 0 0 1920 1080;" xml:space="preserve">
<style type="text/css">
	.st0{fill:none;}
	.st1{fill:#09092D;}
	.st2{clip-path:url(#SVGID_00000016793969631044475000000010442053947373200827_);}
	.st3{fill:none;stroke:#2A2A4B;stroke-width:15;stroke-linecap:round;stroke-miterlimit:10;}
</style>
<rect x="-0.3" class="st0" width="1920" height="1080"/>
<g>
	<rect class="st1" width="1920" height="1080"/>
	<g>
		<g>
			<defs>
				<rect id="SVGID_1_" width="1920" height="1080"/>
			</defs>
			<clipPath id="SVGID_00000141455172881845376280000000706232640480519589_">
				<use xlink:href="#SVGID_1_"  style="overflow:visible;"/>
			</clipPath>
			<g style="clip-path:url(#SVGID_00000141455172881845376280000000706232640480519589_);">
				<g>
					<path class="st3" d="M1046.1,1375.5c-2.1-0.7-4.2-1.4-6.3-2.2l0,0c-13.9-4.9-27.5-10.3-40.8-16.2c-26-11.5-51-24.9-75-39.7l0,0
						c-16.2-10-32-20.8-47.4-32.1c-14.3-10.6-28.4-21.7-42.1-33.2c-13-10.9-25.6-22.3-38.1-34c-11.9-11.2-23.5-22.7-35-34.5
						c-11-11.4-21.8-23-32.5-34.8c-10.3-11.5-20.5-23.1-30.5-34.9c-9.7-11.5-19.3-23.2-28.8-34.9c-9.3-11.5-18.4-23.1-27.4-34.8
						c-8.8-11.4-17.6-23-26.2-34.5c-8.5-11.3-16.9-22.7-25.3-34.1c-8.2-11.2-16.3-22.4-24.4-33.5c-4-5.5-8-11.1-12-16.6
						c-3.9-5.4-7.8-10.9-11.7-16.3c-7.7-10.7-15.3-21.4-23-32.1c-7.5-10.5-15-21.1-22.3-31.8c-7.4-10.6-14.7-21.3-21.9-32
						c-7.3-10.9-14.6-21.9-21.7-32.9c-7.3-11.4-14.5-22.9-21.5-34.4c-7.3-12.1-14.4-24.3-21.3-36.6c-7.2-12.9-14.2-26-20.9-39.3
						c-7-14-13.8-28-20.1-42.4c-5.8-13.2-11.3-26.6-16.4-40.1c-0.7-1.9-1.4-3.8-2.1-5.7c-5.9-16-11.5-32.4-17.1-48.6
						c-5.8-16.6-11.8-33.1-18.6-49.1l0,0c-7-16.5-14.9-32.4-24.3-47.5c-6-9.5-12.6-18.7-20-27.4c-4.7-5.5-9.6-10.7-14.7-15.6
						c-13.7-13.2-28.9-24.5-45.2-34.6c-13.9-8.6-28.6-16.2-43.8-23.1c-11.9-5.5-24.2-10.5-36.6-15.4c-10.8-4.2-21.7-8.2-32.7-12.2
						c-10.7-3.9-21.5-7.7-32.3-11.5c-10.8-3.9-21.5-7.7-32.1-11.8c-10.7-4-21.2-8.2-31.6-12.6c-10.4-4.5-20.7-9.1-30.6-14.2
						c-10.1-5.1-19.8-10.6-29.1-16.5c-9.5-6-18.5-12.6-27.1-19.7c-17-14.2-31.9-30.7-43.9-50.6c-72.2-119.3,9.4-277.7-30.7-411.3
						c-29.9-99.4-124.6-168.4-224.5-196.3s-205.9-21.5-309.4-14.9"/>
					<path class="st3" d="M1092.3,1435.6c-48.9-7.3-99.5-29.8-99.5-29.8c-23-7.8-45.2-17.1-66.8-27.6c-18-8.8-35.5-18.4-52.5-28.8
						c-15.6-9.5-30.8-19.7-45.7-30.5c-13.9-10.1-27.4-20.6-40.7-31.6c-12.6-10.4-24.9-21.2-37-32.4c-11.5-10.7-22.9-21.6-34-32.9
						c-10.7-10.8-21.2-21.9-31.6-33.2c-10-10.9-19.9-22.1-29.7-33.4c-9.5-11-18.8-22.1-28-33.4c-9-11-17.8-22.1-26.6-33.2
						c-8.6-10.9-17-21.9-25.4-32.9c-8.2-10.8-16.3-21.7-24.4-32.5c-7.9-10.7-15.7-21.3-23.5-32c-7.7-10.5-15.2-21-22.8-31.5
						c-1-1.4-2.1-2.9-3.1-4.3c-6.5-9-12.9-17.9-19.3-26.9c-7.5-10.5-15-21-22.5-31.6c-7.6-10.8-15.2-21.6-22.7-32.5
						c-7.8-11.3-15.5-22.7-23.1-34.2c-8-12-15.8-24.1-23.4-36.3c-8.1-12.9-16-25.9-23.6-39.1c-8.1-14-15.9-28-23.4-42.3
						c-7.9-15-15.4-30.3-22.4-45.7c-4.4-9.8-8.7-19.6-12.8-29.5"/>
					<path class="st3" d="M274.3,544.8c-3.7-10.2-7.6-20.3-11.9-30.2c-1.8-4.3-3.7-8.5-5.6-12.7"/>
					<path class="st3" d="M234.1,460.7c-4.9-7.3-10.2-14.4-15.9-21.2c-4.1-4.8-8.4-9.5-12.9-13.9c-11.1-10.9-23.2-20.6-36.1-29.3
						c-10.8-7.3-22-13.9-33.7-19.9c-10.2-5.3-20.7-10.2-31.4-14.9c-10.3-4.5-20.8-8.7-31.5-12.8c-10.6-4.1-21.3-8-32.1-11.9
						S19,329.1,8.2,325.3c-10.8-3.9-21.5-7.8-32.1-11.8c-10.7-4.1-21.2-8.3-31.5-12.8c-10.4-4.5-20.6-9.3-30.4-14.5
						c-38.9-20.4-72.7-46.4-95.8-84.6c-72.2-119.3,9.4-277.7-30.7-411.3C-242.1-309-336.8-378-436.8-405.9s-205.9-21.5-309.4-14.9"
						/>
					<path class="st3" d="M935.7,1434.7c-20.6-7.2-40.5-15.5-59.8-24.8c-17.2-8.3-34-17.4-50.4-27.2c-15.1-9-29.8-18.6-44.1-28.8
						c-13.5-9.5-26.6-19.5-39.5-29.9c-12.2-9.9-24.2-20.1-35.9-30.7c-11.2-10.1-22.3-20.5-33.1-31.2c-10.4-10.3-20.7-20.8-30.8-31.5
						c-9.8-10.4-19.4-20.9-28.8-31.7c-9.2-10.4-18.3-21-27.2-31.7c-8.7-10.4-17.3-20.9-25.8-31.5c-8.3-10.3-16.5-20.8-24.6-31.3
						c-7.9-10.2-15.8-20.6-23.5-30.9c-7.7-10.2-15.3-20.5-22.9-30.8l0,0c-7.6-10.4-15.2-20.7-22.7-31.1
						c-6.2-8.6-12.5-17.2-18.6-25.8c-1.4-2-2.8-4-4.3-5.9c-7.9-10.9-15.7-21.9-23.6-32.8c-8.2-11.5-16.3-23-24.4-34.5
						c-8.5-12.2-17-24.5-25.3-36.8c-8.9-13.1-17.5-26.3-26-39.6c-9.1-14.2-17.9-28.5-26.4-42.9c-9-15.3-17.7-30.7-25.9-46.3
						c-8.5-16-16.5-32.3-24.1-48.8c-7.5-16.4-14.5-33.1-20.9-50c-0.1-0.2-0.1-0.3-0.2-0.5c-6.4-16.9-12.2-34.2-18.2-51.4
						c-5.9-16.8-11.9-33.5-18.7-49.7c-6.5-15.3-13.6-30.3-22.1-44.4c-6.8-11.3-14.3-22.1-23-32.3c-0.9-1.1-1.9-2.2-2.9-3.3
						c-8.5-9.6-17.8-18.3-27.7-26.3c-8.9-7.2-18.3-13.8-28.1-19.8c-9.4-5.9-19.2-11.3-29.2-16.3s-20.2-9.7-30.6-14.1
						s-20.9-8.6-31.6-12.6c-10.6-4-21.4-7.9-32.1-11.8c-10.8-3.9-21.6-7.7-32.3-11.5c-10.8-3.9-21.5-7.8-32-11.9
						C-144,317.8-200.9,288-234.8,232c-72.2-119.3,9.4-277.7-30.7-411.3c-29.9-99.4-124.6-168.4-224.5-196.3s-205.9-21.5-309.4-14.9
						"/>
					<path class="st3" d="M886.3,1466.3c-0.4-0.1-0.8-0.2-1.1-0.4c-19.5-6.7-38.5-14.4-57-23.1c-16.6-7.8-32.8-16.3-48.6-25.4
						c-14.6-8.5-28.8-17.5-42.7-27c-13.1-8.9-25.8-18.3-38.4-28.2c-11.9-9.3-23.5-18.9-35-28.9c-10.9-9.5-21.7-19.4-32.2-29.4
						c-10.2-9.7-20.1-19.6-30-29.8c-9.5-9.8-18.8-19.8-28-29.9c-8.9-9.8-17.7-19.8-26.4-29.9c-8.4-9.8-16.8-19.7-25-29.8
						c-8.1-9.8-16-19.7-23.9-29.7c-7.9-9.9-15.6-20-23.3-30c-7.8-10.2-15.6-20.5-23.3-30.8c-8-10.7-15.8-21.3-23.6-32
						c-8.2-11.2-16.3-22.4-24.4-33.6c-2.9-4.1-5.9-8.1-8.8-12.2c-5.6-7.8-11.2-15.5-16.8-23.3c-9-12.6-18-25.2-27-37.8
						c-9.5-13.5-19-27.1-28.3-40.8c-9.9-14.6-19.6-29.2-29.1-44c-1.9-3-3.8-5.9-5.7-8.9"/>
					<path class="st3" d="M261.9,818.8c-8.1-13.9-16-28-23.5-42.2c-8.2-15.6-16.1-31.4-23.4-47.4c-7.1-15.5-13.8-31.2-19.9-47.2
						c-0.5-1.2-1-2.5-1.4-3.7c-5.4-14.2-10.3-28.6-15.4-43.1c-5.2-15-10.5-30-16.2-44.8c-5.4-13.7-11.1-27.2-17.7-40.1
						c-5.9-11.7-12.5-23-20.1-33.8c-4-5.7-8.2-11.2-12.8-16.6c-3.2-3.7-6.4-7.3-9.8-10.7c-7.9-8.1-16.4-15.5-25.3-22.4
						c-8.8-6.8-18-13-27.7-18.8c-9.5-5.7-19.3-11-29.5-16c-10-4.9-20.3-9.5-30.8-13.9c-10.4-4.4-21-8.5-31.7-12.5
						s-21.4-7.9-32.2-11.7c-84-30-168.3-58.3-212.8-131.9c-72.2-119.3,9.4-277.7-30.7-411.3c-29.9-99.4-124.6-168.4-224.5-196.3
						c-100-27.9-205.9-21.5-309.4-14.9"/>
					<path class="st3" d="M-906-330c103.6-6.6,209.5-13,309.4,14.9c100,27.9,194.7,96.9,224.5,196.3c40.2,133.6-41.5,292,30.7,411.3
						c55.1,91.1,171,112.8,272.1,154.2c10.5,4.3,20.8,8.8,30.9,13.6c10.2,4.9,20.1,10,29.7,15.6c9.7,5.6,19,11.7,27.9,18.3
						c9,6.7,17.6,13.9,25.7,21.9c4.6,4.5,9,9.2,13.3,14.2c3.3,3.9,6.5,8,9.6,12.1c7.3,10,13.8,20.4,19.7,31.3
						c6.2,11.5,11.7,23.5,16.8,35.8c5.3,12.8,10.2,26,14.8,39.2c4.8,13.7,9.5,27.4,14.3,41c2.3,6.4,4.6,12.7,6.9,19
						c2.8,7.4,5.7,14.7,8.7,22c5.7,13.7,11.7,27.2,18.1,40.6c6.6,13.9,13.6,27.7,20.9,41.2c7.8,14.5,15.8,28.8,24.2,42.9
						c8.9,15,18.1,29.9,27.6,44.7c9.8,15.3,19.8,30.4,30.1,45.4c10.2,15,20.6,29.9,31,44.7c10,14.2,20.1,28.2,30.2,42.3
						c3.4,4.7,6.7,9.4,10.1,14.1c6.1,8.4,12.2,16.9,18.3,25.3c8.9,12.2,17.8,24.5,26.8,36.7c8.5,11.5,17,22.9,25.6,34.3
						c8.2,10.8,16.4,21.5,24.7,32.2c8,10.2,16.1,20.4,24.2,30.5c8,9.8,16,19.6,24.1,29.2s16.3,19,24.6,28.4
						c8.4,9.5,17,18.8,25.6,28.1c8.9,9.5,18,18.9,27.2,28c9.6,9.5,19.3,18.8,29.1,27.9c10.3,9.5,20.7,18.7,31.4,27.6
						c11.2,9.4,22.5,18.4,34.1,27.1c12.2,9.2,24.6,18,37.3,26.3c13.5,8.9,27.3,17.3,41.5,25.2c15.3,8.5,30.9,16.4,47,23.6
						c16.2,7.3,32.9,13.9,50,19.7"/>
					<path class="st3" d="M-959.3-299.8c103.6-6.6,209.5-13,309.4,14.9S-455.3-188-425.4-88.6c40.1,133.6-41.5,292,30.7,411.3
						c65.7,108.7,218.2,118.7,328.6,181c9.8,5.5,19.2,11.4,28.2,17.9c9.1,6.5,17.9,13.6,26,21.3c5.9,5.5,11.5,11.4,16.8,17.6
						c2.2,2.6,4.4,5.3,6.5,8c7.5,9.7,14.1,19.9,20.1,30.6c6.4,11.3,12,23.1,17.2,35.2c5.4,12.6,10.3,25.6,15,38.6
						c1.1,2.9,2.1,5.8,3.1,8.7"/>
					<path class="st3" d="M81.5,723.2c1.9,5.2,3.8,10.4,5.7,15.6c1.7,4.5,3.4,9,5.2,13.5c1.3,3.4,2.7,6.7,4.1,10"/>
					<path class="st3" d="M113.9,801.2c3.8,8,7.8,16,11.8,24c6.1,11.9,12.4,23.7,19,35.4c6.8,12.2,13.9,24.3,21.1,36.3
						c7.8,12.8,15.8,25.6,23.9,38.2c8.9,13.8,18.1,27.5,27.4,41.1c10,14.6,20.1,29.2,30.3,43.6c10.5,14.9,21.2,29.8,31.9,44.6
						c2.9,4.1,5.8,8.1,8.8,12.2c7.6,10.5,15.2,21,22.8,31.6c9.9,13.7,20,27.3,30.1,41c9.4,12.7,18.9,25.3,28.5,37.8
						c9,11.7,18,23.3,27.2,34.9c8.6,10.8,17.4,21.6,26.2,32.2c8.4,10.1,16.9,20.1,25.5,30c8.3,9.5,16.8,18.9,25.3,28.2
						c8.4,9.1,17,18.1,25.6,26.9c8.7,8.9,17.6,17.7,26.6,26.2c9.3,8.8,18.7,17.5,28.3,25.9c10,8.8,20.2,17.4,30.5,25.7
						c10.8,8.7,21.9,17.1,33.2,25.2c11.9,8.5,24,16.7,36.4,24.4c13.2,8.2,26.6,16,40.4,23.3c14.8,7.9,30,15.1,45.5,21.8
						c12.9,5.5,26.1,10.6,39.5,15.1"/>
					<path class="st3" d="M-1012.5-269.5c103.6-6.6,209.5-13,309.4,14.9c100,27.9,194.7,96.9,224.5,196.3
						c40.2,133.6-41.4,292,30.7,411.3c76.6,126.6,271,119.3,379.3,216.9c7.2,6.5,14,13.4,20.4,20.9c1.1,1.3,2.3,2.7,3.4,4.1
						c7.7,9.5,14.5,19.5,20.6,29.9c6.5,11.1,12.3,22.7,17.6,34.6c5.5,12.5,10.5,25.3,15.2,38.2c4.9,13.3,9.4,26.7,14.1,40
						c3.7,10.6,7.4,21.1,11.3,31.5c1,2.7,2,5.3,3.1,8c4.9,12.6,10.2,25.1,15.7,37.4l0,0c5.4,12,11,23.8,16.9,35.5l0,0
						c5.8,11.5,11.7,22.8,17.9,34c6.1,11,12.3,21.9,18.7,32.7s12.9,21.5,19.6,32.1c6.9,11,13.9,21.9,21.1,32.7
						c7.6,11.6,15.4,23,23.3,34.5c8.6,12.5,17.4,25,26.2,37.4c9.8,13.8,19.6,27.5,29.4,41.2c2.9,4.1,5.9,8.1,8.8,12.2
						c7.6,10.5,15.2,21,22.8,31.6c10.7,14.8,21.5,29.5,32.5,44.2c10.6,14.2,21.2,28.3,32.1,42.4c10.1,13.1,20.3,26,30.6,38.8
						c9.6,11.9,19.4,23.7,29.3,35.3c9.2,10.8,18.6,21.5,28.1,32.1c8.9,9.9,18,19.7,27.2,29.3c8.8,9.2,17.7,18.2,26.8,27
						c8.8,8.6,17.8,17.1,26.9,25.3c9.1,8.3,18.4,16.3,27.8,24.2c9.7,8.1,19.6,16,29.7,23.6c10.6,8,21.3,15.7,32.3,23.1
						c11.6,7.8,23.4,15.3,35.4,22.4c12.8,7.6,25.9,14.7,39.3,21.3c14.4,7.2,29.2,13.8,44.3,19.8c8.7,3.5,17.6,6.8,26.6,9.8"/>
					<path class="st3" d="M-1065.8-239.2c103.6-6.6,209.5-13,309.4,14.9c100,27.9,194.7,96.9,224.5,196.3
						c40.1,133.6-41.5,292,30.7,411.3c81.7,135,297.2,117.7,399.6,237.8c7.9,9.3,14.9,19.1,21.2,29.3c6.7,10.9,12.6,22.3,18,34
						c5.7,12.3,10.7,25,15.5,37.8c4.9,13.2,9.5,26.6,14.2,39.9c4.3,12.5,8.7,25,13.3,37.2c0.3,0.8,0.6,1.7,1,2.5
						c4.9,12.7,10.1,25.3,15.5,37.8c5.3,12.1,10.9,24,16.8,35.8c5.7,11.5,11.7,22.9,17.8,34.2c6,11.1,12.2,22,18.6,32.9
						c6.3,10.7,12.7,21.3,19.3,31.8c0,0,0,0.1,0.1,0.1"/>
					<path class="st3" d="M90.6,1006.9c6.3,9.6,12.8,19.2,19.3,28.8c6.9,10.2,13.9,20.3,21,30.4c7.4,10.7,15,21.2,22.5,31.8
						c8.2,11.5,16.5,23,24.7,34.5c1.1,1.6,2.3,3.2,3.4,4.8c8,11.1,16.1,22.3,24.2,33.5c10.2,14,20.4,28,30.8,41.9
						c10.9,14.6,21.9,29.2,33,43.6c11.2,14.4,22.5,28.8,34,42.9c10.9,13.4,22,26.7,33.3,39.7c10.4,12,21,23.9,31.7,35.5
						c10,10.8,20.1,21.3,30.3,31.6c9.6,9.6,19.3,19.1,29.2,28.3c9.4,8.7,18.9,17.2,28.5,25.5c9.4,8,18.9,15.8,28.5,23.4
						s19.4,14.9,29.4,21.9c10.3,7.3,20.8,14.3,31.4,21.1c11.3,7.1,22.8,13.9,34.5,20.3c12.5,6.9,25.3,13.3,38.3,19.3
						c14.1,6.5,28.4,12.4,43.1,17.8c3.8,1.4,7.5,2.7,11.3,4"/>
					<path class="st3" d="M620,1617.6c-12.1-4.1-24-8.7-35.7-13.6c-12.7-5.3-25.1-11-37.3-17.2c-11.4-5.7-22.6-11.8-33.6-18.2
						c-10.6-6.1-21-12.6-31.2-19.3c-10.3-6.8-20.4-13.8-30.4-21.1c-10.4-7.6-20.5-15.5-30.6-23.6c-10.7-8.7-21.2-17.6-31.5-26.9
						c-11.2-10-22.2-20.3-33-30.8c-11.8-11.5-23.4-23.3-34.7-35.4c-12.3-13.1-24.4-26.5-36.2-40.1c-12.1-13.9-24-28.1-35.7-42.5
						c-11.3-13.8-22.3-27.8-33.2-42c-10-12.9-19.9-26-29.6-39c-8.8-11.7-17.4-23.5-26-35.2c-7.9-10.7-15.6-21.5-23.4-32.2
						c-3.2-4.4-6.3-8.8-9.5-13.1c-4.1-5.7-8.2-11.4-12.3-17.1c-7-9.8-14-19.6-21-29.4s-13.9-19.6-20.8-29.5s-13.8-19.9-20.6-29.9
						c-6.8-10.1-13.6-20.2-20.2-30.4c-6.7-10.3-13.3-20.7-19.8-31.1c-6.6-10.6-13-21.2-19.2-32c-6.4-10.9-12.5-22-18.5-33.1
						c-6.1-11.4-12-22.8-17.7-34.4c-5.8-11.9-11.4-23.9-16.6-36.1c-5-11.5-9.7-23.2-14.2-35c-0.4-1-0.8-2.1-1.2-3.1
						c-4.9-13.2-9.5-26.5-14.2-39.9c-16.8-48.3-33.9-96.7-66.8-135.2c-102.4-120.1-318-102.8-399.6-237.8
						C-626.5,294-544.9,135.7-585,2.1C-615-97.1-709.7-166.2-809.6-194c-100-27.9-205.8-21.5-309.4-14.9"/>
					<path class="st3" d="M566.8,1647.9c-4.9-1.7-9.8-3.4-14.7-5.2c-12.3-4.6-24.5-9.6-36.4-15c-11.3-5.1-22.5-10.6-33.4-16.4
						c-11-5.8-21.8-11.9-32.4-18.4c-11.1-6.7-22.1-13.8-32.8-21.2c-11.6-7.9-23-16.3-34.1-24.9c-12.3-9.5-24.3-19.3-36.1-29.5
						c-13-11.3-25.8-22.9-38.2-34.9c-13.4-12.9-26.4-26.1-39.2-39.8c-12.6-13.4-25-27.2-37.1-41.2c-11.2-12.9-22.2-26.1-33.1-39.4
						c-9.6-11.8-19.1-23.7-28.5-35.7c-8.4-10.7-16.7-21.6-24.9-32.4c-7.6-10.1-15.1-20.1-22.6-30.2c-7.2-9.7-14.3-19.4-21.4-29.1
						s-14.1-19.4-21.1-29.1c-1.9-2.6-3.8-5.3-5.7-7.9c-5.1-7.1-10.2-14.2-15.3-21.3l0,0c-7-9.8-14-19.5-20.9-29.3
						c-7-9.8-13.9-19.7-20.8-29.6s-13.8-19.9-20.5-29.9l0,0c-6.8-10.1-13.5-20.3-20.2-30.5c-6.7-10.3-13.3-20.7-19.7-31.2
						c-6.5-10.6-12.9-21.3-19.1-32.1c-6.3-11-12.5-22.1-18.4-33.2c-17.3-32.6-32.8-66-45.9-100.6c-23.2-61.6-39.5-128.2-82.2-178.3
						c-102.4-120.1-318-102.8-399.6-237.8c-72.2-119.3,9.4-277.7-30.7-411.3c-29.9-99.4-124.6-168.4-224.5-196.3
						s-205.9-21.5-309.4-14.9"/>
					<path class="st3" d="M-1225.6-148.4c103.6-6.6,209.5-13,309.4,14.9s194.7,96.9,224.5,196.3c40.2,133.6-41.5,292,30.7,411.3
						c81.7,135,297.2,117.7,399.6,237.8c42.7,50.1,58.9,116.7,82.2,178.3c25.7,68,60.9,131.5,100.3,192.8
						c6.6,10.3,13.3,20.5,20.1,30.6s13.6,20.1,20.5,30s13.8,19.8,20.8,29.6c6.9,9.8,13.9,19.6,20.9,29.3c6.1,8.5,12.2,17,18.3,25.5
						c0.9,1.2,1.8,2.5,2.7,3.7c7,9.7,14,19.4,21,29.1c7,9.6,14.1,19.3,21.2,28.9c7.1,9.6,14.2,19.1,21.3,28.7
						c7.1,9.5,14.3,18.9,21.6,28.3c7.4,9.6,14.8,19.1,22.4,28.5c8,10,16.1,20,24.3,29.8c9.1,10.9,18.3,21.8,27.6,32.4
						c10.7,12.2,21.6,24.3,32.8,36.1c12.6,13.3,25.4,26.4,38.5,39c13.8,13.3,27.9,26.2,42.4,38.6l0,0c13.8,11.8,27.9,23.1,42.3,33.8
						c12.9,9.6,26.1,18.8,39.5,27.5c12.1,7.8,24.4,15.2,36.9,22.3c11.5,6.4,23.2,12.5,35.2,18.2c11.4,5.4,22.9,10.5,34.7,15.2
						c9,3.6,18.1,7,27.3,10.1"/>
					<path class="st3" d="M-1278.8-118.2c103.6-6.6,209.5-13,309.4,14.9C-869.4-75.4-774.7-6.4-744.9,93
						c40.2,133.6-41.5,292,30.7,411.3c81.7,135,297.2,117.7,399.6,237.8c42.7,50.1,58.9,116.7,82.2,178.3
						c37.9,100.3,96.6,190.9,158.6,278.8c6.9,9.8,13.9,19.6,20.9,29.4s14,19.5,21,29.2c0.1,0.2,0.2,0.3,0.3,0.5
						c6.9,9.5,13.8,19.1,20.7,28.7c7,9.6,14.1,19.3,21.1,29c7,9.6,14.1,19.2,21.3,28.7c7.1,9.5,14.3,18.9,21.5,28.4
						c7.2,9.4,14.5,18.7,21.8,27.9c7.3,9.2,14.7,18.3,22.1,27.4c7.5,9.1,15,18.1,22.6,27c8,9.3,16,18.5,24.2,27.5
						c9,9.9,18.1,19.8,27.3,29.4c10.7,11.1,21.6,22,32.6,32.6c13,12.5,26.4,24.6,40,36.3c15,12.8,30.3,25.1,46,36.7
						c15.2,11.2,30.8,21.9,46.8,31.8c14.1,8.8,28.5,17,43.2,24.6c13,6.7,26.2,13,39.8,18.8c12.3,5.3,24.8,10.1,37.5,14.6
						c1,0.3,2,0.7,3,1"/>
					<path class="st3" d="M-1332.1-87.9c103.6-6.6,209.5-13,309.4,14.9S-828,23.9-798.1,123.3c40.2,133.6-41.5,292,30.7,411.3
						c81.7,135,297.2,117.7,399.6,237.8c42.7,50.1,58.9,116.7,82.2,178.3c45.7,121.1,121.8,228,197.5,333.1c1.1,1.6,2.2,3.1,3.3,4.7
						c5.9,8.2,11.8,16.3,17.7,24.5c7,9.7,14,19.3,21.1,29c7,9.6,14.1,19.2,21.3,28.7c7.1,9.5,14.3,19,21.5,28.4s14.4,18.7,21.8,28
						c7.3,9.2,14.7,18.4,22.1,27.5s14.9,18,22.5,26.9l0,0c7.5,8.8,15.2,17.6,22.9,26.2s15.5,17.1,23.4,25.5
						c8.1,8.6,16.3,17,24.5,25.3c9,9,18.2,17.9,27.5,26.5c10.8,10.1,21.8,19.8,32.9,29.3c13.6,11.5,27.6,22.6,41.8,33.1
						c16.3,12.1,33.1,23.5,50.4,34.1l0,0c16.8,10.3,34.1,19.9,51.9,28.6c15.2,7.5,30.9,14.4,46.8,20.6c7.1,2.8,14.4,5.4,21.7,7.9"/>
					<path class="st3" d="M-1385.3-57.7c103.6-6.6,209.5-13,309.4,14.9c100,27.9,194.7,96.9,224.5,196.3
						c40.2,133.6-41.5,292,30.7,411.3c81.7,135,297.2,117.7,399.6,237.8c42.7,50.1,58.9,116.7,82.2,178.3
						c46.4,122.9,124.1,231.2,200.9,337.8c18.7,26,37.7,52.1,57.1,78.1c7.1,9.5,14.2,19,21.5,28.5c7.2,9.4,14.4,18.8,21.7,28.1
						c7.3,9.2,14.6,18.4,22,27.6c7.4,9.1,14.9,18.1,22.4,27s15.1,17.7,22.8,26.3c7.7,8.6,15.4,17.2,23.3,25.6l0,0
						c7.8,8.4,15.8,16.7,23.8,24.8c8,8.1,16.1,16.1,24.4,23.9c8.3,7.9,16.8,15.7,25.3,23.2c9.2,8.2,18.6,16.1,28.1,23.8
						c11.1,9,22.4,17.7,33.9,26.1c14.5,10.5,29.4,20.5,44.6,29.8c18.1,11.2,36.8,21.4,56.1,30.7c18.5,8.9,37.5,16.9,57.1,23.9
						c2.5,0.9,5,1.8,7.5,2.6"/>
					<path class="st3" d="M-1438.6-27.4c103.6-6.6,209.5-13,309.4,14.9c100,27.9,194.7,96.9,224.5,196.3
						c40.2,133.6-41.5,292,30.7,411.3c81.7,135,297.2,117.7,399.6,237.8c42.7,50.1,58.9,116.7,82.2,178.3
						c46.4,122.9,124.1,231.2,200.9,337.8c38.1,52.9,77.4,106.8,119.1,158.3c7.4,9.1,14.8,18.1,22.4,27.1
						c7.5,8.9,15.1,17.7,22.8,26.4c7.6,8.7,15.4,17.3,23.2,25.7c7.8,8.4,15.7,16.7,23.7,24.9c8,8.2,16.1,16.2,24.3,24
						c8.2,7.9,16.5,15.6,24.9,23.1s16.9,14.9,25.6,22c8.7,7.2,17.5,14.2,26.5,21c9.6,7.3,19.3,14.4,29.3,21.2
						c11.7,8,23.6,15.7,35.8,23c15.9,9.5,32.2,18.4,49,26.5l0,0c20.6,10,41.8,18.8,63.8,26.4c0.5,0.2,0.9,0.3,1.4,0.5"/>
					<path class="st3" d="M-1491.9,2.9c103.6-6.6,209.5-13,309.4,14.9c100,27.9,194.7,96.9,224.5,196.3
						c40.2,133.6-41.5,292,30.7,411.3c81.7,135,297.2,117.7,399.6,237.8c42.7,50.1,58.9,116.7,82.2,178.3
						c46.4,122.9,124.1,231.2,200.9,337.8c50.6,70.3,103.2,142.1,160.9,208.1c7.6,8.7,15.3,17.3,23.2,25.8
						c7.8,8.5,15.7,16.8,23.7,25s16,16.3,24.2,24.2c8.2,7.9,16.4,15.6,24.8,23.2s16.9,15,25.5,22.2s17.3,14.2,26.2,21.1
						c8.9,6.8,17.8,13.5,27,19.9s18.5,12.7,27.9,18.6c10.1,6.4,20.5,12.6,30.9,18.4c12.7,7.1,25.6,13.8,38.9,20
						c18.3,8.6,37.1,16.3,56.5,22.9c0.7,0.2,1.4,0.5,2.1,0.7"/>
					<path class="st3" d="M-1545.1,33.1c103.6-6.6,209.5-13,309.4,14.9c100,27.9,194.7,96.9,224.5,196.3
						c40.2,133.6-41.5,292,30.7,411.3c81.7,135,297.2,117.7,399.6,237.8c42.7,50.1,58.9,116.7,82.2,178.3
						c46.4,122.9,124.1,231.2,200.9,337.8c69.7,96.8,143.2,196.4,228.4,279.7c8.1,7.9,16.4,15.7,24.7,23.4
						c8.3,7.6,16.8,15.1,25.4,22.3c8.6,7.3,17.3,14.3,26.1,21.2c8.8,6.9,17.8,13.6,26.8,20c9.1,6.5,18.3,12.7,27.7,18.8
						c9.4,6,18.9,11.8,28.5,17.4c9.7,5.6,19.6,10.9,29.6,16c10.9,5.5,22,10.7,33.4,15.6c13.4,5.8,27.1,11,41,15.8"/>
					<path class="st3" d="M-1598.4,63.4c103.6-6.6,209.5-13,309.4,14.9c100,27.9,194.7,96.9,224.5,196.3
						c40.2,133.6-41.4,292,30.7,411.3c81.7,135,297.2,117.7,399.6,237.8c42.7,50.1,58.9,116.7,82.2,178.3
						c46.4,122.9,124.1,231.2,200.9,337.8c82,113.9,169.3,231.8,274.9,322.3c8.5,7.3,17.2,14.5,26,21.4s17.7,13.7,26.7,20.2
						s18.2,12.8,27.5,18.9s18.8,12,28.4,17.6s19.4,11,29.3,16.1s20.1,10,30.3,14.6c10.4,4.6,21,9,31.7,13c5.6,2.1,11.2,4.1,16.8,6"
						/>
					<path class="st3" d="M-1651.7,93.7c103.6-6.6,209.5-13,309.4,14.9c100,27.9,194.7,96.9,224.5,196.3
						c40.2,133.6-41.4,291.9,30.7,411.3c81.7,135,297.2,117.7,399.6,237.8c42.7,50.1,58.9,116.7,82.2,178.3
						c46.4,122.9,124.1,231.2,200.9,337.8c94.3,131,195.6,267.3,323.7,361.1c9,6.6,18.1,13,27.4,19.1c9.3,6.2,18.7,12.1,28.3,17.8
						c9.6,5.7,19.3,11.2,29.2,16.3c9.9,5.2,20,10.2,30.2,14.8c10.2,4.7,20.7,9.1,31.2,13.2c7.2,2.8,14.4,5.4,21.7,7.9"/>
					<path class="st3" d="M-1704.9,123.9c103.6-6.6,209.5-13,309.4,14.9c100,27.9,194.7,96.9,224.5,196.3
						c40.2,133.6-41.4,292,30.7,411.3c81.7,135,297.2,117.7,399.6,237.8c42.7,50.1,58.9,116.7,82.2,178.3
						c46.4,122.9,124.1,231.2,200.9,337.8c106.7,148.1,222.2,303,375.3,395.5c9.5,5.8,19.2,11.3,29.1,16.6c9.8,5.3,19.9,10.3,30,15
						c10.2,4.8,20.5,9.2,31.1,13.4c8.6,3.4,17.4,6.7,26.2,9.7"/>
				</g>
				<g>
					<path class="st3" d="M1009.5,1172.9c14.6-12.5,28.7-25.5,42.3-39.1c9.9-9.9,19.6-20.1,29-30.5c7.3-8.1,14.3-16.3,21.3-24.7
						c5.7-6.9,11.3-13.9,16.7-21.1c5.5-7.2,10.9-14.5,16.2-21.8c6.3-8.8,12.4-17.8,18.3-26.8c7.3-11.3,14.4-22.8,21.2-34.5
						c7.9-13.6,15.3-27.5,22.4-41.6c7.7-15.4,14.8-31,21.3-46.9c5.9-14.2,11.3-28.5,16.2-43c0.9-2.5,1.7-5.1,2.6-7.7
						c5.8-16.9,11.8-33.9,23.1-47.7c0.4-0.5,0.8-0.9,1.1-1.4c16-18.8,37.3-27.5,61.2-31.7l0,0c25.3-4.5,53.5-4,81.3-5.4
						c12-0.6,23.8-1.5,35.4-3.3c10.7-1.7,21.2-4.2,31.1-7.8c0.2-0.1,0.4-0.2,0.6-0.2c10.1-3.8,19.3-8.6,27.7-14.4
						c11.6-7.9,21.8-17.5,30.8-28.4c10.2-12.4,19-26.4,26.6-41.4c7.7-15.1,14.3-31.2,20.2-47.8c6-16.8,11.3-34,16.3-51
						c3-10.3,6-20.5,8.9-30.4c2.1-7.1,4.3-14.2,6.7-21.3c5.5-16.5,11.8-33.1,18.9-49.4c6.8-15.7,14.4-31.2,22.7-46.2
						c8.2-14.9,17.2-29.3,26.8-43c9.8-14,20.3-27.2,31.6-39.4c11.7-12.8,24.2-24.5,37.5-34.8c14.3-11.2,29.5-20.8,45.7-28.4
						c18.4-8.8,37.9-15,58.6-18.3c6.4-1,12.9-1.7,19.5-2.1c18.5-1.2,38.2-0.1,56.1-3.8c9.8-2,19-5.4,27.1-11.4
						c6.9-5.1,12.4-11.5,16.8-18.7c8.9-14.7,13.4-32.8,16.8-50c0.1-0.3,0.1-0.6,0.2-0.9c3.6-17.9,6.8-36,9.8-54
						c11.8-69,22.1-138.4,43.6-204.9c94-289.8,423.4-481.2,721.7-419.5"/>
					<path class="st3" d="M2811.8-486.6c-298.3-61.7-627.7,129.7-721.7,419.5c-27.2,83.9-36.4,172.4-53.5,259
						c-5.1,25.9-12.4,54-33.8,69.6c-8.6,6.3-18.4,9.7-28.7,11.7c-17.4,3.3-36.5,2.4-54.5,3.5c-7.5,0.5-14.9,1.3-22.2,2.6
						c-20.5,3.5-39.8,10-58,18.9c-15.9,7.8-30.9,17.4-45,28.5c-2.4,1.9-4.7,3.8-7,5.7"/>
					<path class="st3" d="M1763.1,355.3c-1.9,2-3.8,4.1-5.7,6.1c-9.1,9.9-17.6,20.5-25.7,31.6"/>
					<path class="st3" d="M1695.2,451.6c-6.6,12.5-12.7,25.2-18.2,38.1c-7,16.1-13.2,32.5-18.7,48.8c-2.4,7.1-4.6,14.2-6.7,21.3
						c-2.9,9.8-5.8,19.8-8.8,30c-5,16.9-10.2,34-16.2,50.7c-5.9,16.7-12.6,33-20.3,48.3c-8,15.7-17.2,30.3-28,43.1
						c-11.3,13.3-24.3,24.6-39.8,33.2c-5.5,3-11.3,5.8-17.4,8c-8.5,3.2-17.4,5.5-26.5,7.2c-11.2,2.1-22.7,3.2-34.4,3.9
						c-10.7,0.6-21.4,0.9-32.1,1.3c-16.9,0.5-33.7,1.2-49.4,3.5c-23.1,3.4-44,10.3-60.5,25.7c-2.7,2.5-5.3,5.3-7.8,8.3
						c-9.5,11.6-15.3,25.6-20.4,39.8c-1.8,5.2-3.6,10.4-5.3,15.5c-1.5,4.4-3.1,8.8-4.7,13.2"/>
					<path class="st3" d="M1258.8,943.9c-3.3,7.4-6.8,14.7-10.4,22c-7.9,16.1-16.4,31.9-25.5,47.4c-8.6,14.6-17.6,29-27.1,43
						c-8.5,12.5-17.3,24.7-26.5,36.7c-7.4,9.6-15,19.1-22.9,28.4c-6.1,7.2-12.3,14.3-18.7,21.3c-5.6,6.1-11.3,12.2-17.1,18.2
						c-6.5,6.7-13.2,13.3-19.9,19.8c-9.1,8.7-18.4,17.2-28,25.4c-13.3,11.5-27.1,22.6-41.2,33.2"/>
					<path class="st3" d="M1070,1276c9.2-6.9,18.3-13.9,27.2-21.2c6.6-5.4,13.1-10.8,19.4-16.4c6.2-5.4,12.2-10.9,18.2-16.4
						c7.4-6.9,14.7-14,21.9-21.2c9.6-9.7,18.8-19.6,27.9-29.7c10.9-12.3,21.4-24.9,31.5-37.8c11-14.1,21.5-28.6,31.5-43.4
						c10.3-15.3,20.1-31.1,29.3-47.1c9.2-16.1,17.9-32.6,25.9-49.4c8-16.7,15.4-33.7,22.1-51c3.7-9.5,7.2-19,10.5-28.6
						c2.7-7.8,5.2-15.7,8.2-23.4c4.4-11.5,9.7-22.5,17.4-32c3.6-4.4,7.5-8.3,11.7-11.7c12.5-10.3,27.2-16.3,43.3-19.9
						c9.7-2.2,20-3.5,30.5-4.3c11.4-0.9,23.2-1.3,35-1.7c15.3-0.5,30.7-0.9,45.7-2.5c15.4-1.6,30.4-4.5,44.4-9.7
						c5.8-2.2,11.3-4.7,16.6-7.6c10.2-5.5,19.4-12.3,27.7-20"/>
					<path class="st3" d="M1657.4,723.2c7.4-14.8,13.8-30.5,19.6-46.6c0.4-1.2,0.9-2.5,1.3-3.7"/>
					<path class="st3" d="M1689.2,639.2c1.3-4.4,2.7-8.8,4-13.3c3.1-10.4,6.1-20.8,9-30.9c2-6.7,4.1-13.5,6.3-20.3
						c5.4-16.3,11.6-32.7,18.6-48.8c6.7-15.6,14.2-31,22.3-45.9c8.1-14.8,16.9-29.1,26.3-42.8c9.6-13.9,19.9-27,30.9-39.2
						c11.5-12.7,23.7-24.4,36.7-34.8c14-11.2,28.9-21,44.7-28.9c18.2-9.1,37.5-15.8,58-19.5c7.9-1.4,15.9-2.4,24.2-2.9
						c28.6-1.8,60.1,1.7,83.2-15.2c21.4-15.6,28.7-43.7,33.8-69.6c17.1-86.6,26.2-175.1,53.5-259c94-289.8,423.4-481.2,721.7-419.5"
						/>
					<path class="st3" d="M2912.9-415.9c-298.3-61.7-627.7,129.7-721.7,419.5c-27.2,83.9-36.4,172.4-53.5,259
						c-5.1,25.9-12.4,54-33.8,69.6c-23.1,16.9-54.6,13.4-83.2,15.2c-30.2,1.9-58.1,10.1-83.7,23.2c-15.8,8-30.7,17.9-44.7,29.3
						c-12.9,10.5-25.1,22.3-36.5,35.1c-10.9,12.3-21.2,25.4-30.7,39.3c-9.4,13.7-18.1,28-26.1,42.8c-8.1,14.9-15.5,30.3-22.1,45.8
						c-6.9,16.1-13,32.4-18.4,48.7c-2.1,6.3-4,12.6-5.9,18.9c-3.1,10.5-6.2,21.3-9.4,32.2c-5,16.8-10.2,33.8-16.2,50.4
						c-5.9,16.5-12.5,32.5-20.2,47.5c-7.9,15.4-17,29.7-27.7,42.2c-11.4,13.4-24.7,24.8-40.3,33.3c-5.3,2.9-10.8,5.4-16.6,7.6
						c-14.9,5.6-30.9,8.4-47.4,10c-23.6,2.3-48.2,2-71.5,3.4c-12,0.8-23.6,2-34.6,4.3c-10.3,2.2-20.2,5.3-29.2,9.8
						c-8.6,4.3-16.5,10-23.5,17.3c-1.5,1.6-2.9,3.2-4.3,4.9c-7.8,9.6-13.1,20.7-17.6,32.3c-2.9,7.6-5.5,15.4-8.1,23.1
						c-2.8,8.3-5.9,16.6-9,24.8c-6.3,16.3-13.1,32.4-20.5,48.2c-7.6,16.3-15.8,32.3-24.6,48c-9,16.2-18.6,32-28.8,47.5
						c-10.3,15.7-21.2,31.1-32.7,46c-11.4,14.8-23.3,29.2-35.7,43.1c-11.7,13.1-23.8,25.8-36.3,38c-10.6,10.4-21.6,20.5-32.8,30.2
						c-8.3,7.2-16.7,14.2-25.3,21.1c-6.5,5.2-13,10.2-19.6,15.1l0,0c-6.4,4.8-13,9.5-19.6,14.1"/>
					<path class="st3" d="M2963.5-380.6c-298.3-61.7-627.7,129.7-721.7,419.5c-27.2,83.9-36.4,172.4-53.5,259
						c-5.1,25.9-12.4,54-33.8,69.6c-23.1,16.9-54.6,13.4-83.2,15.2c-30.6,1.9-58.8,10.3-84.7,23.7c-15.8,8.2-30.8,18.2-44.8,29.7
						c-12.9,10.6-25.1,22.5-36.5,35.4c-10.9,12.3-21.1,25.6-30.6,39.5c-6.2,9.1-12.1,18.5-17.7,28.1"/>
					<path class="st3" d="M1839.5,572c-4.5,9.2-8.7,18.5-12.7,27.9c-6.8,16.1-12.9,32.4-18.2,48.7c-1.9,5.7-3.6,11.5-5.3,17.2
						c-3.2,11-6.5,22.4-9.9,33.8c-5,16.8-10.2,33.7-16.2,50.3c-5.9,16.4-12.6,32.4-20.3,47.3c-7.9,15.3-17.1,29.5-27.8,41.9
						c-11.5,13.3-24.8,24.5-40.4,32.9c-5,2.7-10.2,5.1-15.8,7.1c-14.8,5.5-30.7,8.4-47,10c-27.3,2.7-55.8,1.8-82.3,4.3
						c-18,1.7-35,4.9-50.1,11.7c-7.2,3.3-13.9,7.3-20.1,12.5"/>
					<path class="st3" d="M1448.2,952.4c-4.6,10.3-8.1,21.2-11.7,31.9c-0.4,1.1-0.7,2.1-1.1,3.2c-4.1,11.8-8.5,23.4-13.2,35
						c-5.3,13.1-11,26.1-17.1,38.9c-6.7,14.2-13.9,28.1-21.5,41.9c-8.2,14.8-16.9,29.4-26.1,43.7c-9.8,15.2-20.1,30.1-31,44.6
						c-11.4,15.2-23.3,29.9-35.8,44.2c-12.7,14.6-25.9,28.6-39.6,42.2c-13.2,13-26.9,25.6-41,37.6c-12.2,10.4-24.7,20.3-37.4,29.9
						c-9.4,7-18.9,13.8-28.6,20.3c-6.9,4.7-14,9.3-21.1,13.7"/>
					<path class="st3" d="M3014-345.2c-298.3-61.7-627.7,129.7-721.7,419.5c-27.2,83.9-36.4,172.4-53.5,259
						c-5.1,25.9-12.4,54-33.8,69.6c-23.1,16.9-54.6,13.4-83.2,15.2c-49.6,3.1-93.1,23.3-130.3,54l0,0c-13,10.7-25.2,22.7-36.6,35.8
						c-10.9,12.4-21.1,25.8-30.6,39.9c-9.3,13.8-18,28.3-25.9,43.2c-8,15-15.3,30.4-21.8,46c-6.8,16.1-12.8,32.5-18.1,48.8
						c-1.7,5.1-3.2,10.3-4.8,15.4c-3.4,11.6-6.8,23.5-10.4,35.6c-5,16.8-10.3,33.7-16.3,50.2c-6,16.3-12.7,32.2-20.5,47.1
						c-8,15.2-17.2,29.3-28,41.6c-11.5,13.1-24.9,24.2-40.7,32.4c-4.6,2.4-9.5,4.6-14.6,6.5c-15.2,5.7-31.5,8.5-48.3,10.1
						c-27.1,2.5-55.4,1.7-81.6,4.2c-22.6,2.1-43.8,6.8-61.3,18.1c-7.2,4.6-13.7,10.3-19.5,17.5c-4.2,5.2-7.7,10.8-10.8,16.8
						c-6.2,12.2-10.5,25.6-14.9,38.6l-0.1,0.4c-4.4,12.7-9.1,25.3-14.1,37.8c-4.8,11.8-9.9,23.5-15.3,35
						c-5,10.8-10.3,21.4-15.9,31.9c-5.1,9.6-10.3,19.1-15.8,28.5c-6.5,11.1-13.2,22.1-20.3,32.8c-8.4,12.9-17.2,25.5-26.4,37.9
						c-10.3,13.9-21.2,27.5-32.4,40.7l0,0c-12.3,14.4-25.1,28.3-38.4,41.8c-14,14.1-28.5,27.7-43.5,40.7
						c-14.7,12.7-30,24.9-45.7,36.5c-13.6,10.1-27.6,19.6-41.9,28.7"/>
					<path class="st3" d="M1225.1,1449.5c17.3-10.9,34.2-22.5,50.5-34.8c16.3-12.2,32.1-25.2,47.3-38.7c14-12.4,27.6-25.4,40.6-38.8
						c11.4-11.7,22.4-23.8,33-36.2c8.6-10.1,17-20.4,25.1-30.9c6.2-8.1,12.2-16.2,18.1-24.5c6.2-8.7,12.2-17.6,18-26.6
						c6.2-9.6,12.2-19.3,18-29.2c6.1-10.4,11.9-20.9,17.5-31.6c7-13.4,13.6-27,19.8-40.8c6.8-15.2,13.1-30.6,18.9-46.3
						c2-5.3,3.9-10.7,5.7-16.1c3.7-10.9,7.3-22.1,12.1-32.6c3.7-8.1,8-15.9,13.7-22.8c5.5-6.8,11.7-12.3,18.4-16.8
						c17.6-11.8,39-16.5,61.9-18.7c25.8-2.5,53.6-1.8,80.4-4.1c17.4-1.5,34.3-4.4,50-10.2c4.6-1.7,8.9-3.6,13.1-5.8
						c15.9-8,29.4-19,41-32c3-3.3,5.8-6.8,8.6-10.4"/>
					<path class="st3" d="M1863.4,856.7c5-10.6,9.5-21.7,13.7-32.9c6.1-16.4,11.4-33.3,16.4-50.1c3.8-12.6,7.3-25,10.9-37.2
						c1.4-4.6,2.8-9.2,4.3-13.9c5.2-16.4,11.2-32.8,18-49c6.6-15.7,13.8-31.2,21.8-46.3c7.9-15,16.6-29.5,25.9-43.4
						c47.9-71.3,114.2-125.3,198.1-130.6c28.6-1.8,60.1,1.7,83.2-15.2c21.4-15.6,28.7-43.7,33.8-69.6c17.1-86.6,26.2-175.1,53.5-259
						c94-289.8,423.4-481.2,721.7-419.5"/>
					<path class="st3" d="M3115.1-274.6c-298.3-61.7-627.7,129.7-721.7,419.5c-27.2,83.9-36.4,172.4-53.5,259
						c-5.1,25.9-12.4,54-33.8,69.6c-23.1,16.9-54.6,13.4-83.2,15.2c-100.4,6.3-175.7,82.5-224.4,174.7c-8,15.1-15.3,30.7-21.8,46.5
						c-6.8,16.3-12.8,32.7-18,49.2c-1.3,4.2-2.6,8.5-3.9,12.7c-3.7,12.5-7.4,25.5-11.3,38.5c-5,16.8-10.4,33.7-16.5,50.1
						c-6.1,16.3-12.9,32.2-20.9,46.9c-8.2,15.1-17.6,29.1-28.6,41.2c-11.8,12.9-25.5,23.7-41.6,31.6c-3.7,1.8-7.6,3.5-11.5,5
						c-16.3,6.1-33.9,8.9-52.1,10.4c-26.6,2.2-54.2,1.5-79.7,4.1l0,0c-22.4,2.3-43.3,7.1-60.5,18.6l0,0c-6.7,4.5-12.8,10-18.3,16.7
						c-5.6,6.9-10,14.6-13.6,22.8c-4.7,10.5-8.3,21.7-12.1,32.6c-2,5.7-4,11.4-6.1,17.1c-6.1,16.4-12.7,32.5-19.9,48.4
						c-7,15.5-14.6,30.8-22.6,45.7c-7.7,14.4-15.9,28.5-24.6,42.4c-7.8,12.4-15.9,24.6-24.3,36.6c-6.4,9.1-13,18-19.8,26.8
						c-6.4,8.2-12.9,16.4-19.6,24.3c-6.2,7.4-12.5,14.6-19,21.8c-7.3,8.1-14.9,16.1-22.6,23.8c-10.6,10.8-21.6,21.2-32.8,31.3
						c-13.8,12.4-28,24.2-42.6,35.5c-16.6,12.8-33.7,24.9-51.3,36.3"/>
					<path class="st3" d="M1341.6,1510.2c15.3-10.2,30.2-20.9,44.7-32.2c11-8.6,21.8-17.4,32.3-26.6c7.2-6.2,14.2-12.6,21.1-19.1
						s13.7-13.1,20.4-19.8c7.2-7.2,14.2-14.6,21-22.1c8.7-9.6,17.2-19.3,25.5-29.3c10.2-12.3,19.9-24.9,29.3-37.8
						c9.9-13.6,19.3-27.5,28.2-41.7c9.1-14.5,17.7-29.3,25.9-44.3c8.1-15.1,15.7-30.5,22.8-46.1c7.2-15.8,13.8-31.8,19.8-48.1
						c2.1-5.8,4.2-11.6,6.2-17.4c3.7-10.7,7.2-21.7,11.8-32c3.7-8.4,8.1-16.3,13.9-23.4c5.3-6.5,11.2-11.8,17.6-16.2
						c17-11.6,37.4-16.6,59.5-19l0,0c25.3-2.7,52.7-2.1,79.2-4.1l0,0c18.9-1.4,37.4-4.2,54.3-10.6c3.4-1.3,6.8-2.7,10.1-4.3
						c16.4-7.7,30.2-18.5,42.2-31.4c11.2-12,20.7-26,29-41.1c8.1-14.7,14.9-30.6,21.1-47s11.6-33.4,16.6-50.2
						c4-13.3,7.8-26.5,11.5-39.3c39.1-133,129.7-274.4,268-283.1c28.6-1.8,60.1,1.7,83.2-15.2c21.4-15.6,28.7-43.7,33.8-69.6
						c17.1-86.6,26.2-175.1,53.5-259c94-289.8,423.4-481.2,721.7-419.5"/>
					<path class="st3" d="M1392.3,1545.4c10.8-7.2,21.5-14.7,31.9-22.5c7.1-5.3,14-10.6,20.9-16.1c7.2-5.8,14.4-11.7,21.4-17.8
						c7.9-6.8,15.6-13.8,23.2-20.9c10.9-10.2,21.5-20.7,31.8-31.6c11.4-12.1,22.5-24.5,33.1-37.3c10.9-13.1,21.4-26.6,31.4-40.3
						c9.9-13.7,19.4-27.7,28.4-42s17.6-29,25.6-43.9c8.1-15,15.7-30.3,22.8-45.9c7.2-15.8,13.8-31.8,19.8-48
						c2.3-6.1,4.4-12.1,6.5-18.2c3.6-10.4,7-21,11.4-31.1c3.8-8.7,8.3-17,14.3-24.3c5-6.1,10.6-11.2,16.6-15.5
						c16.6-11.7,36.7-16.9,58.5-19.4c25.2-2.9,52.5-2.3,79-4.2c19.7-1.4,39-4.1,56.6-10.8c3-1.1,5.9-2.4,8.8-3.7
						c16.6-7.6,30.7-18.3,42.8-31.2c42.1-44.8,60.5-116.2,78.8-178.4c39.1-133,129.7-274.4,268.1-283.1c28.6-1.8,60.1,1.7,83.2-15.2
						c21.4-15.6,28.7-43.7,33.8-69.6c17.1-86.5,26.2-175.1,53.5-259c94-289.8,423.4-481.2,721.7-419.5"/>
					<path class="st3" d="M1427.2,1590.9c7.2-4.5,14.3-9.1,21.3-13.9c7.5-5.1,15-10.4,22.3-15.8c9.2-6.8,18.3-13.8,27.2-21
						c12.4-10,24.6-20.5,36.3-31.3c12.6-11.6,24.8-23.6,36.7-36c11.8-12.3,23.1-25.1,34-38.2c10.8-13,21.2-26.3,31.1-40
						c9.9-13.6,19.4-27.6,28.4-41.9s17.6-28.9,25.6-43.8c8.1-15,15.7-30.2,22.8-45.8c7.2-15.7,13.8-31.7,19.8-47.8
						c2.4-6.4,4.7-12.9,6.9-19.3c3.4-10,6.7-20.2,10.9-29.9c3.9-9.1,8.6-17.8,14.8-25.5c4.7-5.8,9.8-10.6,15.4-14.7
						c16.3-11.9,36.1-17.3,57.5-20c25.1-3.1,52.5-2.5,79.2-4.3c20.4-1.3,40.3-4.1,58.6-10.9c2.7-1,5.3-2.1,7.9-3.2
						c75-33.8,98.9-129.6,122.6-210c39.1-133,129.7-274.4,268.1-283.1c28.6-1.8,60.1,1.7,83.2-15.2c21.4-15.6,28.7-43.7,33.8-69.6
						c17.1-86.5,26.2-175.1,53.5-259c94-289.8,423.4-481.2,721.7-419.5"/>
					<path class="st3" d="M3317.3-133.2C3019-195,2689.6-3.5,2595.6,286.3c-27.2,83.9-36.4,172.4-53.5,259
						c-5.1,25.9-12.4,54-33.8,69.6c-23.1,16.9-54.6,13.4-83.2,15.2c-138.4,8.7-228.9,150-268.1,283.1
						c-24.5,83.2-49.2,182.8-130.4,213.3c-18.7,7-39.2,9.7-60.1,11l0,0c-26.9,1.7-54.4,1.1-79.6,4.4c-21.2,2.8-40.7,8.5-56.7,20.7
						c-5.1,3.9-9.9,8.4-14.2,13.8c-6.6,8-11.4,17.2-15.4,26.8c-3.9,9.3-7.1,19.1-10.3,28.6c-2.4,6.9-4.8,13.8-7.4,20.6
						c-6.1,16.1-12.7,32.1-19.9,47.7c-7.1,15.5-14.7,30.7-22.8,45.6c-8.1,14.8-16.6,29.4-25.6,43.6s-18.5,28.1-28.4,41.7
						s-20.3,26.9-31.1,39.8c-10.9,13-22.2,25.7-33.9,37.9c-11.8,12.4-24.1,24.4-36.7,36c-12.9,11.8-26.2,23.2-39.9,34.1
						c-13.1,10.4-26.6,20.4-40.4,30c-10.2,7.1-20.7,13.9-31.2,20.4c-0.6,0.3-1.1,0.7-1.7,1.1"/>
					<path class="st3" d="M3367.9-97.9c-298.3-61.7-627.7,129.7-721.7,419.5c-27.2,83.9-36.4,172.4-53.5,259
						c-5.1,25.9-12.4,54-33.8,69.6c-23.1,16.9-54.6,13.4-83.2,15.2c-138.4,8.7-228.9,150-268.1,283.1
						c-24.5,83.2-49.2,182.8-130.4,213.3c-43.2,16.2-96.2,9.3-141.4,15.7l0,0c-21,3-40.3,8.8-56.2,21.3c-4.7,3.7-9.1,8-13.1,12.9
						c-6.8,8.4-11.8,18-15.9,28.1c-3.7,8.9-6.7,18.2-9.8,27.3c-2.5,7.3-5.2,14.7-7.9,21.9c-6.1,16.1-12.8,32-19.9,47.6
						c-7.1,15.4-14.7,30.6-22.9,45.5c-8.1,14.8-16.6,29.3-25.7,43.5c-9,14.2-18.5,28.1-28.4,41.6c-9.9,13.6-20.3,26.8-31.1,39.7
						c-10.9,13-22.2,25.6-33.8,37.8c-11.8,12.4-24.1,24.3-36.7,35.9c-12.8,11.7-26.1,23-39.7,33.8c-14,11.1-28.3,21.7-43.1,31.8
						c-9.8,6.7-19.8,13.2-29.9,19.4"/>
					<path class="st3" d="M3418.4-62.6c-298.3-61.7-627.7,129.7-721.7,419.5c-27.2,83.9-36.4,172.4-53.5,259
						c-5.1,25.9-12.4,54-33.8,69.6c-23.1,16.9-54.6,13.4-83.2,15.2c-138.4,8.7-228.9,150-268.1,283.1
						c-24.4,83.2-49.2,182.8-130.4,213.3c-43.6,16.4-97.2,9.1-142.6,15.8c-21,3.1-40.2,9.1-55.9,21.9c-4.3,3.5-8.4,7.5-12.2,12.2
						c-7.1,8.7-12.2,18.8-16.4,29.3c-3.4,8.6-6.3,17.4-9.3,26.1c-2.7,7.8-5.4,15.5-8.4,23.2c-6.1,16.1-12.8,32-20,47.6
						c-7.1,15.4-14.8,30.6-22.9,45.4s-16.7,29.3-25.7,43.4s-18.5,28-28.4,41.5s-20.3,26.7-31.1,39.6c-10.8,12.9-22.1,25.5-33.8,37.7
						c-11.8,12.3-24.1,24.3-36.7,35.8c-12.8,11.7-26,22.9-39.6,33.7c-13.9,11-28.2,21.6-42.8,31.6c-9.7,6.6-19.6,13-29.6,19.2"/>
					<path class="st3" d="M3468.9-27.2c-298.3-61.7-627.7,129.7-721.7,419.5c-27.2,83.9-36.4,172.4-53.5,259
						c-5.1,25.9-12.4,54-33.8,69.6c-23.1,16.9-54.6,13.4-83.2,15.2c-138.4,8.7-228.9,150-268.1,283.1
						c-24.5,83.2-49.2,182.8-130.4,213.3c-64.1,24.1-149.6-2.8-199.2,38.3c-4.1,3.4-7.9,7.2-11.4,11.6c-7.3,9-12.5,19.4-16.8,30.2
						c-3.3,8.3-6,16.8-8.9,25.1c-2.8,8.1-5.7,16.2-8.8,24.2c-6.2,16.1-12.9,32-20.1,47.6c-7.2,15.4-14.8,30.6-23,45.4
						c-8.1,14.8-16.7,29.2-25.8,43.4c-9,14.1-18.5,27.9-28.5,41.5s-20.3,26.7-31.1,39.5c-10.9,12.9-22.2,25.5-33.8,37.6
						c-11.8,12.3-24,24.2-36.6,35.7c-12.8,11.7-26,22.9-39.6,33.6c-13.9,11-28.2,21.5-42.8,31.4c-9.5,6.4-19.1,12.7-28.9,18.7"/>
					<path class="st3" d="M3519.5,8.1c-298.3-61.7-627.7,129.7-721.7,419.5c-27.2,83.9-36.4,172.4-53.5,259
						c-5.1,25.9-12.4,54-33.8,69.6c-23.1,16.9-54.6,13.4-83.2,15.2c-138.4,8.7-228.9,150-268.1,283.1
						c-24.5,83.2-49.2,182.8-130.4,213.3c-69.4,26-163.8-7.6-210.6,49.8c-7.5,9.2-12.7,19.9-17.1,31c-3.1,8-5.8,16.3-8.6,24.4
						c-2.9,8.4-5.9,16.8-9.1,25.1c-6.2,16.1-12.9,32-20.2,47.6c-7.2,15.4-14.9,30.6-23.1,45.5c-8.1,14.8-16.8,29.2-25.9,43.4
						c-9.1,14.1-18.6,28-28.6,41.5s-20.4,26.7-31.2,39.5c-10.9,12.9-22.2,25.4-33.9,37.6c-11.8,12.3-24.1,24.1-36.7,35.6
						c-12.8,11.6-26,22.8-39.6,33.5c-13.9,10.9-28.1,21.4-42.8,31.3c-9.2,6.3-18.6,12.3-28.1,18.1"/>
					<path class="st3" d="M3570,43.4c-298.3-61.7-627.7,129.7-721.7,419.5c-27.2,83.9-36.4,172.4-53.5,259
						c-5.1,25.9-12.4,54-33.8,69.6c-23.1,16.9-54.6,13.4-83.2,15.2c-138.4,8.7-228.9,150-268.1,283.1
						c-24.4,83.2-49.2,182.8-130.4,213.3c-69.4,26-163.8-7.6-210.6,49.8c-12.9,15.9-19.1,36-25.7,55.4
						c-14.1,41.1-31.8,80.9-52.8,118.8c-8.2,14.8-16.8,29.3-26,43.5c-9.1,14.1-18.7,28-28.7,41.5s-20.4,26.7-31.3,39.5
						c-10.9,12.9-22.2,25.4-34,37.5l0,0c-11.8,12.2-24.1,24.1-36.7,35.5c-12.8,11.6-26,22.8-39.6,33.4l0,0
						c-13.9,10.9-28.1,21.3-42.8,31.2c-8.9,6.1-18,11.9-27.2,17.6"/>
					<path class="st3" d="M3620.6,78.8c-298.3-61.7-627.7,129.7-721.7,419.5c-27.2,83.9-36.4,172.4-53.5,259
						c-5.1,25.9-12.4,54-33.8,69.6c-23.1,16.9-54.6,13.4-83.2,15.2c-138.4,8.7-228.9,150-268.1,283.1
						c-24.5,83.2-49.2,182.8-130.4,213.3c-69.4,26-163.8-7.6-210.6,49.8c-12.9,15.9-19.1,36-25.7,55.4
						c-25.1,73.2-61.8,142.3-107.9,204.5c-10,13.5-20.5,26.7-31.4,39.6s-22.3,25.4-34.1,37.6c-11.9,12.2-24.2,24.1-36.8,35.5
						c-12.8,11.6-26.1,22.7-39.7,33.4c-13.9,10.9-28.2,21.3-42.8,31.2c-8.6,5.8-17.4,11.5-26.3,16.9"/>
					<path class="st3" d="M3671.1,114.1c-298.3-61.7-627.7,129.7-721.7,419.5c-27.2,83.9-36.4,172.4-53.5,259
						c-5.1,25.9-12.4,54-33.8,69.6c-23.1,16.9-54.6,13.4-83.2,15.2c-138.4,8.7-228.9,150-268.1,283.1
						c-24.5,83.2-49.2,182.8-130.4,213.3c-69.4,26-163.8-7.6-210.6,49.8c-12.9,15.9-19.1,36-25.7,55.4
						c-30.6,89.4-78.6,172.6-139.8,244.6c-11,12.9-22.4,25.5-34.2,37.6c-11.9,12.3-24.2,24.1-36.9,35.6
						c-12.9,11.6-26.2,22.7-39.8,33.4c-13.9,10.9-28.2,21.3-42.9,31.1c-8.3,5.6-16.8,11-25.3,16.3"/>
					<path class="st3" d="M3721.7,149.4C3423.4,87.7,3094,279.2,3000,568.9c-27.2,83.9-36.4,172.4-53.5,259
						c-5.1,25.9-12.4,54-33.8,69.6c-23.1,16.9-54.6,13.4-83.2,15.2c-138.4,8.7-228.9,150-268.1,283.1
						c-24.4,83.2-49.2,182.8-130.4,213.3c-69.4,26-163.8-7.6-210.6,49.8c-12.9,15.9-19.1,36-25.7,55.4
						c-41.8,121.9-115.8,232.3-211.6,318.3c-12.9,11.6-26.3,22.8-40,33.4c-14,10.9-28.3,21.3-43,31.2c-8.1,5.4-16.2,10.7-24.5,15.7"
						/>
					<path class="st3" d="M1926.2,1948.3c8-4.9,15.9-10,23.7-15.2c14.8-9.9,29.2-20.3,43.2-31.2c115.5-89.9,204.7-213.7,252.2-352.2
						c6.6-19.4,12.8-39.5,25.7-55.4c46.8-57.4,141.3-23.8,210.6-49.8c81.2-30.5,106-130.1,130.4-213.3
						c39.1-133,129.7-274.4,268.1-283.1c28.6-1.8,60.1,1.7,83.2-15.2c21.4-15.6,28.7-43.7,33.8-69.6c17.1-86.5,26.2-175.1,53.5-259
						c94-289.8,423.4-481.2,721.7-419.5"/>
				</g>
				<g>
					<path class="st3" d="M-84.4,222C-22.2,124.6,39.9,27.2,102-70.2c28-43.9,56.7-88.6,97.4-121c35.5-28.2,78.3-45.6,116.3-70.4
						c89.3-58.2,146.6-152.8,211-237.7C635.1-642,770.7-764,924-856.8c15.6-9.4,31.8-18.7,49.7-21.9c52.7-9.5,100,36,123.7,84
						s35.1,102.9,68.7,144.6c70.4,87.2,220.3,94.8,264.3,197.9c12.5,29.2,76.9,110.9,91.8,139c15.4,29.2,118.8,91.8,145.7,111
						c158.5,113.2,178.5,135.7,337,249"/>
					<path class="st3" d="M-57.3,241.7C-4.2,158.4,48.9,75.2,102-8.1c28-43.9,56.7-88.6,97.4-121c35.5-28.2,78.3-45.6,116.3-70.4
						c89.3-58.2,146.6-152.8,211-237.7c108.4-142.7,244-264.7,397.3-357.5c15.6-9.4,31.8-18.7,49.7-21.9c52.7-9.5,100,36,123.7,84
						s35.1,102.9,68.7,144.6c70.4,87.2,220.3,94.8,264.3,197.9c12.5,29.2,75.6,109.9,90.4,138c15.4,29.2,117.2,90.9,144.1,110.1
						c155.5,111,180.5,136.7,331,244.5"/>
					<path class="st3" d="M-28.2,258.2c43.4-68,86.8-136.1,130.2-204.1c28-43.9,56.7-88.6,97.4-121c35.5-28.2,78.3-45.6,116.3-70.4
						c89.3-58.2,146.6-152.8,211-237.7c108.4-142.7,244-264.8,397.3-357.5c15.6-9.4,31.8-18.7,49.7-21.9c52.7-9.5,100,36,123.7,84
						c23.7,48,35.1,102.9,68.7,144.6c70.4,87.2,220.3,94.8,264.3,197.9c12.5,29.2,74.3,108.8,89.1,136.9
						c15.4,29.2,115.6,90,142.5,109.2c152,108.6,182.1,137.3,324,239.3"/>
					<path class="st3" d="M2.4,272.4c33.2-52.1,66.4-104.2,99.7-156.2c28-43.9,56.7-88.6,97.4-121C235-33,277.8-50.4,315.8-75.1
						c89.3-58.2,146.6-152.8,211-237.7C635.1-455.6,770.7-577.7,924-670.4c15.6-9.4,31.8-18.7,49.7-21.9c52.7-9.5,100,36,123.7,84
						s35.1,102.9,68.7,144.6c70.4,87.2,220.3,94.8,264.3,197.9c12.5,29.2,72.9,107.8,87.7,135.9c15.4,29.2,114,89.1,140.9,108.3
						c145.8,104.2,181.9,136.5,310.2,229.2"/>
					<path class="st3" d="M34,285c22.7-35.6,45.4-71.2,68.1-106.7c28-43.9,56.7-88.6,97.4-121C235,29.1,277.8,11.7,315.8-13
						c89.3-58.2,146.6-152.8,211-237.7C635.1-393.5,770.7-515.6,924-608.3c15.6-9.4,31.8-18.7,49.7-21.9c52.7-9.5,100,36,123.7,84
						c23.7,48,35.1,102.9,68.7,144.6c70.4,87.2,220.3,94.8,264.3,197.9c12.5,29.2,71.6,106.8,86.4,134.9
						c15.4,29.2,112.4,88.2,139.3,107.4c127.8,91.3,173.3,128.7,269.2,199.1"/>
					<path class="st3" d="M66.1,296.8c12-18.8,24-37.6,36-56.4c28-43.9,56.7-88.6,97.4-121C235,91.2,277.8,73.8,315.8,49
						c89.3-58.2,146.6-152.8,211-237.7C635.1-331.4,770.7-453.4,924-546.2c15.6-9.4,31.8-18.7,49.7-21.9c52.7-9.5,100,36,123.7,84
						s35.1,102.9,68.7,144.6c70.4,87.2,220.3,94.8,264.3,197.9c12.5,29.2,70.3,105.8,85.1,133.9c15.4,29.2,110.8,87.3,137.7,106.5
						c90.5,64.6,140.7,102.9,196.5,144.9"/>
					<path class="st3" d="M98.3,308.3c1.2-1.9,2.5-3.9,3.7-5.8c28-43.9,56.7-88.6,97.4-121c35.5-28.2,78.3-45.6,116.3-70.4
						c89.3-58.2,146.6-152.8,211-237.7c85.8-113.1,188.7-213.2,303.9-296"/>
					<path class="st3" d="M1050.9-482c19.3,15.9,35.4,37.6,46.4,59.9c23.7,48,35.1,102.9,68.7,144.6
						c70.4,87.2,220.3,94.8,264.3,197.9c12.5,29.2,68.9,104.7,83.7,132.8c8.7,16.4,42.2,41.8,74.7,64.2"/>
					<path class="st3" d="M1626.2,142.7c10,6.6,18.4,12.2,23.9,16.2c59.8,42.8,102.5,74.2,140.9,102.9"/>
					<path class="st3" d="M131,320.5c19.7-28.5,41.5-55.4,68.5-76.8c35.5-28.2,78.3-45.6,116.3-70.4
						c89.3-58.2,146.6-152.8,211-237.7C635.1-207.2,770.7-329.2,924-421.9c15.6-9.4,31.8-18.7,49.7-21.9c52.7-9.5,100,36,123.7,84
						s35.1,102.9,68.7,144.6c70.4,87.2,220.3,94.8,264.3,197.9c12.5,29.2,67.6,103.7,82.4,131.8c15.4,29.2,107.6,85.5,134.4,104.7
						c38.6,27.6,70.2,50.5,98.2,71.2"/>
					<path class="st3" d="M167.6,335.9c9.8-10.8,20.4-21,31.9-30.1c29.6-23.5,64.1-39.5,96.8-58.4"/>
					<path class="st3" d="M339,219C415.4,160.4,468.2,75,526.9-2.3c38.6-51,80.8-99.3,125.9-144.6"/>
					<path class="st3" d="M1280.6-73.7c61.4,30.2,123.8,57.8,149.7,118.4c12.5,29.2,66.2,102.7,81.1,130.8
						c15.4,29.2,106,84.6,132.8,103.8c23.4,16.8,44.4,31.9,63.6,45.8"/>
					<path class="st3" d="M211.4,359c32.9-23.2,70.6-39.4,104.4-61.5c89.3-58.2,146.6-152.8,211-237.7
						C635.1-82.9,770.7-205,924-297.7c15.6-9.4,31.8-18.7,49.7-21.9c52.7-9.5,100,36,123.7,84s35.1,102.9,68.7,144.6
						c70.4,87.2,220.3,94.8,264.3,197.9c12.5,29.2,64.9,101.6,79.7,129.8c15.4,29.2,104.4,83.7,131.2,102.9
						c12.3,8.8,23.9,17.1,34.9,25.1"/>
					<path class="st3" d="M256.6,393.6c19.9-11,40.1-21.5,59.2-33.9c89.3-58.2,146.6-152.8,211-237.7
						C635.1-20.8,770.7-142.8,924-235.6c15.6-9.4,31.8-18.7,49.7-21.9c52.7-9.5,100,36,123.7,83.9s35,102.9,68.6,144.6
						c70.4,87.2,220.3,94.8,264.3,197.9c12.5,29.2,63.6,100.6,78.4,128.7c15.4,29.2,102.8,82.8,129.6,102c3.8,2.7,7.4,5.3,11.1,7.9"
						/>
					<path class="st3" d="M291.3,436.6c8.3-4.7,16.5-9.6,24.5-14.8c30-19.5,56.3-43.1,80.6-69.1"/>
					<path class="st3" d="M425,319.9c35.8-43.4,67.8-91,101.8-135.8c75.8-100,165-189.8,264.4-266.5"/>
					<path class="st3" d="M882.3-147.3c13.7-9,27.6-17.7,41.7-26.2c15.6-9.4,31.8-18.7,49.7-21.9c52.7-9.4,100,36,123.7,84
						c23.7,48,35.1,102.9,68.7,144.6c70.4,87.2,220.3,94.8,264.3,197.9c12.5,29.2,62.2,99.6,77,127.7c14,26.5,86.1,72.5,119.3,95.1"
						/>
					<path class="st3" d="M315.6,484c0.1,0,0.1-0.1,0.2-0.1c89.3-58.2,146.6-152.8,211-237.7c33.7-44.5,70.1-87,108.9-127.2"/>
					<path class="st3" d="M665.2,89.3c78.2-76.5,165.2-144,258.8-200.7c15.6-9.4,31.8-18.7,49.7-21.9c52.7-9.5,100,36,123.7,83.9
						s35.1,102.9,68.7,144.6c24.9,30.9,59.8,51.8,96.4,70.5"/>
					<path class="st3" d="M1315.4,191.9c9.7,4.9,19.2,9.9,28.4,15.1"/>
					<path class="st3" d="M1373.1,225.5c9.3,6.7,18.1,13.9,26,21.8"/>
					<path class="st3" d="M1413.2,263.6c6.7,8.9,12.5,18.7,17.1,29.5c12.5,29.2,60.9,98.5,75.7,126.7c12,22.8,65.8,59.3,101.7,83.4"
						/>
					<path class="st3" d="M334.2,533.2c79-58.6,132.7-145.9,192.6-224.9C635.1,165.6,770.7,43.5,924-49.2
						c15.6-9.4,31.8-18.7,49.7-21.9c52.7-9.4,100,36,123.7,84c23.7,48,35.1,102.9,68.7,144.6c70.4,87.2,220.3,94.8,264.3,197.9
						c12.5,29.2,59.6,97.5,74.4,125.6c10.6,20.2,53.3,50.7,87.5,74"/>
					<path class="st3" d="M351.4,581.8c44.4-36.9,80.8-82.7,115.7-130"/>
					<path class="st3" d="M492.1,417.6c9.5-13.1,19-26.2,28.7-39.1"/>
					<path class="st3" d="M551.4,339c98.5-122.5,217.3-228.5,350.3-312.3"/>
					<path class="st3" d="M933.9,7c12.5-7.2,25.6-13.5,39.8-16.1c52.7-9.5,100,36,123.7,83.9s35.1,102.9,68.7,144.6
						c70.4,87.2,220.3,94.8,264.3,197.9c12.5,29.2,58.2,96.5,73,124.6c9.2,17.5,42,42.5,72.6,63.8"/>
					<path class="st3" d="M370,627.6c60.4-56.2,106.5-128.6,156.9-195C635.1,289.8,770.7,167.7,924,75c15.6-9.4,31.8-18.7,49.7-21.9
						c52.7-9.5,100,36,123.7,83.9c23.7,48,35.1,102.9,68.7,144.6c70.4,87.2,220.3,94.8,264.3,197.9c12.5,29.2,56.9,95.5,71.7,123.6
						c7.4,14.1,29.7,32.8,53.7,50.5"/>
					<path class="st3" d="M390,670c50.9-52.8,92.2-116.4,136.8-175.3c67.5-89,145.6-170,232-240.8"/>
					<path class="st3" d="M789.7,229.3c10.9-8.4,21.9-16.7,33-24.8"/>
					<path class="st3" d="M850.7,184.6c23.9-16.6,48.4-32.4,73.3-47.5c15.6-9.4,31.8-18.7,49.7-21.9c52.7-9.4,100,36,123.7,84
						s35.1,102.9,68.7,144.6c9.6,11.9,20.6,22.2,32.7,31.6"/>
					<path class="st3" d="M1237.3,400.7c72.8,41.4,160.9,65.9,193,140.9c12.5,29.2,55.5,94.4,70.3,122.5c4.7,9,15.3,19.7,28.5,30.8"
						/>
					<path class="st3" d="M411,709.2c41.6-47.7,77.5-101.8,115.9-152.4C635.1,414,770.7,292,924,199.2c15.6-9.4,31.8-18.7,49.7-21.9
						c52.7-9.4,100,36,123.7,83.9c23.7,48,35.1,102.9,68.7,144.6c70.4,87.2,220.3,94.8,264.3,197.9c12.2,28.6,52.4,90.7,68,119.6"/>
					<path class="st3" d="M432.3,745.8c32.9-41,62.9-85.1,94.6-126.9c22.9-30.2,47-59.4,72.2-87.6"/>
					<path class="st3" d="M647.4,479.8C730.1,396,823.2,322.4,924,261.4c7.1-4.3,14.3-8.5,21.7-12.2"/>
					<path class="st3" d="M1014.4,242.6c35.5,11.8,65.6,45.6,83,80.8c23.7,48,35.1,102.9,68.7,144.6
						c70.4,87.2,220.3,94.8,264.3,197.9c7.3,17,24.1,45.7,39.7,72.1"/>
					<path class="st3" d="M453.8,780.2c24.8-32.8,48.4-66.7,73.1-99.2C635.1,538.2,770.7,416.2,924,323.5
						c15.6-9.4,31.8-18.7,49.7-21.9c52.7-9.5,100,36,123.7,84s35.1,102.9,68.7,144.6c16.9,21,38.5,37.3,62,51.5"/>
					<path class="st3" d="M1275.6,607.1c14.3,7.1,28.8,14,42.8,21.1"/>
					<path class="st3" d="M1357.9,650.2c31.3,19.6,57.8,43.4,72.4,77.7c2.2,5.1,5.1,11.1,8.6,17.8"/>
					<path class="st3" d="M475.5,813.1c17.1-23.4,34-47.1,51.4-70c44-58,92.4-112.5,144.7-163.1"/>
					<path class="st3" d="M712.7,541.9c14.4-12.9,29.1-25.5,44.1-37.8"/>
					<path class="st3" d="M793.4,474.9c41.8-32.2,85.4-62,130.6-89.3c15.6-9.4,31.8-18.7,49.7-21.9c52.7-9.5,100,36,123.7,84
						c23.7,48,35.1,102.9,68.7,144.6c59.7,74,176.6,90.7,237.6,156.9"/>
					<path class="st3" d="M1322.3,754.5L1322.3,754.5c-55.7-28.7-117.8-52.6-156.3-100.2c-33.6-41.7-44.9-96.6-68.7-144.6
						c-23.7-48-71-93.4-123.7-84c-17.9,3.2-34.1,12.5-49.7,21.9C770.6,540.4,635,662.4,526.8,805.2c-10,13.1-19.7,26.5-29.5,39.9"/>
					<path class="st3" d="M519.7,876.9c2.4-3.2,4.8-6.3,7.2-9.5C635.1,724.6,770.7,602.6,924,509.8c15.6-9.4,31.8-18.7,49.7-21.9
						c52.7-9.5,100,36,123.7,84c23.7,48,35.1,102.9,68.7,144.6c24.6,30.5,58.9,51.3,95.1,69.8"/>
					<path class="st3" d="M542.7,909c85.8-108.9,187.7-205.2,301.2-284.8"/>
					<path class="st3" d="M880.8,599.2c14.2-9.3,28.6-18.4,43.2-27.2c15.6-9.4,31.8-18.7,49.7-21.9c52.7-9.5,100,36,123.7,84
						s35.1,102.9,68.7,144.6c19,23.6,43.9,41.3,70.9,56.7"/>
					<path class="st3" d="M566.4,941.9c101-121.5,222.4-226,357.6-307.8c15.6-9.4,31.8-18.7,49.7-21.9c52.7-9.5,100,36,123.7,84
						c23.7,48,35.1,102.9,68.7,144.6c14.5,18,32.4,32.5,52,45.3"/>
					<path class="st3" d="M590.8,975.4c96-109.3,208.7-204,333.2-279.3c15.6-9.4,31.8-18.7,49.7-21.9c19.8-3.5,38.7,0.6,56,9.7"/>
					<path class="st3" d="M1068.5,715.2c11.6,13,21.4,27.8,28.9,43c23.7,48,35.1,102.9,68.7,144.6c9,11.2,19.4,21.1,30.7,30"/>
					<path class="st3" d="M616,1009.5C706.3,912,810.2,827,924,758.2c15.6-9.4,31.8-18.7,49.7-21.9c52.7-9.5,100,36,123.7,84
						c23.7,48,35.1,102.9,68.7,144.6c2.7,3.3,5.4,6.5,8.3,9.5"/>
					<path class="st3" d="M642.3,1044.1c35.5-36.4,73-70.9,112.2-103.2"/>
					<path class="st3" d="M791,911.6c10.9-8.4,21.9-16.7,33.1-24.8"/>
					<path class="st3" d="M860.6,861.1c20.8-14.1,41.9-27.7,63.4-40.7c15.6-9.4,31.8-18.7,49.7-21.9c52.7-9.5,100,36,123.7,84
						c20.4,41.3,31.7,87.7,55.8,126.4"/>
					<path class="st3" d="M669.7,1078.8c77-74.7,162.5-140.8,254.3-196.3c15.6-9.4,31.8-18.7,49.7-21.9c52.7-9.5,100,36,123.7,84
						c14.5,29.3,24.4,61.3,37.5,91.2"/>
					<path class="st3" d="M698.5,1113.8c69.3-63.6,145-120.4,225.5-169.2c4.3-2.6,8.6-5.1,12.9-7.6"/>
					<path class="st3" d="M993.4,921.7c44.6,3.2,83.2,43.1,104,85c8.1,16.4,14.8,33.6,21.4,50.9"/>
					<path class="st3" d="M729,1148.7c60.8-52.7,126.1-100.3,195-142c15.6-9.4,31.8-18.7,49.7-21.9c52.7-9.5,100,36,123.7,84
						c1.6,3.2,3.2,6.5,4.6,9.8"/>
					<path class="st3" d="M761.4,1183.5c51.4-41.9,105.8-80.3,162.5-114.7c15.6-9.4,31.8-18.7,49.7-21.9
						c42.3-7.6,81.1,20.2,107.1,56.3"/>
				</g>
			</g>
		</g>
	</g>
</g>
</svg>
